<svg xmlns="http://www.w3.org/2000/svg" viewBox="0 0 24 24" class="GFhhj2 QVOew+" width="30px">
    <path clip-rule="evenodd" fill="none" d="M0 0h24v24H0z"></path>
    <path fill-rule="evenodd" clip-rule="evenodd"
          d="M6.414 10.914c0-2.49 2.01-4.5 4.5-4.5s4.5 2.01 4.5 4.5-2.01 4.5-4.5 4.5-4.5-2.01-4.5-4.5zm9.777 3.78a6.488 6.488 0 001.133-4.89c-.47-2.78-2.79-5-5.59-5.34a6.505 6.505 0 00-7.27 7.27c.34 2.8 2.56 5.12 5.34 5.59a6.485 6.485 0 004.888-1.132l2.85 2.85c.41.41 1.08.41 1.49 0s.41-1.08 0-1.49l-2.84-2.859z"></path>
</svg>
